<svg id="Camada_1" data-name="Camada 1" xmlns="http://www.w3.org/2000/svg" viewBox="0 0 1080 1080"><defs><style>.cls-1,.cls-13,.cls-4{fill:#344859;}.cls-2{fill:#68788c;}.cls-3{fill:#8f96a6;}.cls-4{font-size:120px;font-family:SourceSerifPro-BoldIt, Source Serif Pro;font-weight:700;letter-spacing:0.08em;}.cls-13,.cls-4{font-style:italic;}.cls-5{letter-spacing:0.08em;}.cls-6{letter-spacing:0.09em;}.cls-7{letter-spacing:0.08em;}.cls-8{letter-spacing:0.08em;}.cls-9{letter-spacing:0.03em;}.cls-10{letter-spacing:0.03em;}.cls-11{letter-spacing:0.08em;}.cls-12{letter-spacing:0.09em;}.cls-13{font-size:67px;font-family:SourceSerifPro-It, Source Serif Pro;letter-spacing:0.09em;}.cls-14{letter-spacing:0.08em;}.cls-15{letter-spacing:0.08em;}.cls-16{letter-spacing:0.04em;}.cls-17{letter-spacing:0.07em;}.cls-18{letter-spacing:0.01em;}.cls-19{letter-spacing:0.03em;}.cls-20{letter-spacing:0.08em;}.cls-21{fill:#fff;}</style></defs><title>Logo</title><polygon class="cls-1" points="550 706 208.22 706 208.22 214.27 550 29 550 706"/><polygon class="cls-2" points="556.46 706 870.78 706 870.78 214.27 556.46 29 556.46 706"/><polygon class="cls-3" points="552.61 774.31 552.61 675.08 169.55 675.08 25.22 774.31 552.61 774.31"/><polygon class="cls-3" points="552.61 774.31 552.61 675.08 935.68 675.08 1080 774.31 552.61 774.31"/><text class="cls-4" transform="translate(31.09 900.59)">C<tspan class="cls-5" x="81.6" y="0">O</tspan><tspan class="cls-6" x="171.36" y="0">N</tspan><tspan class="cls-7" x="265.68" y="0">S</tspan><tspan class="cls-8" x="334.68" y="0">T</tspan><tspan class="cls-9" x="417.84" y="0">R</tspan><tspan class="cls-6" x="501.24" y="0">U</tspan><tspan class="cls-10" x="593.88" y="0">D</tspan><tspan class="cls-11" x="679.56" y="0">A</tspan><tspan class="cls-12" x="771.96" y="0">H</tspan><tspan class="cls-11" x="872.52" y="0">E</tspan><tspan class="cls-6" x="952.79" y="0">R</tspan></text><text class="cls-13" transform="translate(196.91 976.59)">C<tspan class="cls-14" x="45.43" y="0">O</tspan><tspan class="cls-15" x="94.67" y="0">N</tspan><tspan class="cls-14" x="149.07" y="0">S</tspan><tspan class="cls-15" x="187.2" y="0">T</tspan><tspan class="cls-16" x="231.01" y="0">R</tspan><tspan class="cls-15" x="276.64" y="0">UÇ</tspan><tspan class="cls-17" x="375.46" y="0">Õ</tspan><tspan x="424.37" y="0">ES </tspan><tspan class="cls-18" x="529.56" y="0">L</tspan><tspan x="567.95" y="0">T</tspan><tspan class="cls-19" x="611.77" y="0">D</tspan><tspan class="cls-20" x="660.41" y="0">A</tspan></text><polygon class="cls-21" points="657.67 479.7 657.67 423 449.86 423 450.93 479.7 657.67 479.7"/><polygon class="cls-21" points="469.41 674.25 355.36 674.25 355.36 316.33 469.86 250 469.41 674.25"/><polygon class="cls-21" points="635.81 675.27 749.86 675.27 749.86 314.61 635.86 250 635.81 675.27"/></svg>