<svg id="Camada_1" data-name="Camada 1" xmlns="http://www.w3.org/2000/svg" viewBox="0 0 1080 1080"><defs><style>.cls-1,.cls-4{fill:#350465;}.cls-2{fill:#644e84;}.cls-3{fill:#948da3;}.cls-4{font-size:110px;font-family:SourceSerifPro-Regular, Source Serif Pro;letter-spacing:0.09em;}.cls-5{letter-spacing:0.07em;}.cls-6{letter-spacing:0.08em;}.cls-7{letter-spacing:0.09em;}.cls-8{letter-spacing:0.05em;}.cls-9{letter-spacing:0.07em;}.cls-10{letter-spacing:0.03em;}.cls-11{font-size:67px;fill:#68788c;font-family:SourceSerifPro-It, Source Serif Pro;font-style:italic;letter-spacing:0.09em;}.cls-12{letter-spacing:0.08em;}.cls-13{letter-spacing:0.08em;}.cls-14{letter-spacing:0.04em;}.cls-15{letter-spacing:0.07em;}.cls-16{letter-spacing:0.01em;}.cls-17{letter-spacing:0.03em;}.cls-18{letter-spacing:0.08em;}.cls-19{fill:#fff;}</style></defs><title>Logo3</title><polygon class="cls-1" points="550 706 208.22 706 208.22 214.27 550 29 550 706"/><polygon class="cls-2" points="556.46 706 870.78 706 870.78 214.27 556.46 29 556.46 706"/><polygon class="cls-3" points="552.61 774.31 552.61 675.08 169.55 675.08 25.22 774.31 552.61 774.31"/><polygon class="cls-3" points="552.61 774.31 552.61 675.08 935.68 675.08 1080 774.31 552.61 774.31"/><text class="cls-4" transform="translate(66.25 890.59)">C<tspan class="cls-5" x="78.76" y="0">O</tspan><tspan class="cls-6" x="163.68" y="0">NS</tspan><tspan class="cls-7" x="317.35" y="0">T</tspan><tspan class="cls-8" x="393.14" y="0">R</tspan><tspan class="cls-9" x="470.69" y="0">U</tspan><tspan class="cls-10" x="557.81" y="0">D</tspan><tspan class="cls-6" x="638.66" y="0">A</tspan><tspan class="cls-7" x="719.94" y="0">HER</tspan></text><text class="cls-11" transform="translate(196.91 966.59)">C<tspan class="cls-12" x="45.43" y="0">O</tspan><tspan class="cls-13" x="94.67" y="0">N</tspan><tspan class="cls-12" x="149.07" y="0">S</tspan><tspan class="cls-13" x="187.2" y="0">T</tspan><tspan class="cls-14" x="231.01" y="0">R</tspan><tspan class="cls-13" x="276.64" y="0">UÇ</tspan><tspan class="cls-15" x="375.46" y="0">Õ</tspan><tspan x="424.37" y="0">ES </tspan><tspan class="cls-16" x="529.56" y="0">L</tspan><tspan x="567.95" y="0">T</tspan><tspan class="cls-17" x="611.77" y="0">D</tspan><tspan class="cls-18" x="660.41" y="0">A</tspan></text><polygon class="cls-19" points="657.67 479.7 657.67 423 449.86 423 450.93 479.7 657.67 479.7"/><polygon class="cls-19" points="469.41 674.25 355.36 674.25 355.36 316.33 469.86 250 469.41 674.25"/><polygon class="cls-19" points="635.81 675.27 749.86 675.27 749.86 314.61 635.86 250 635.81 675.27"/></svg>