<svg id="Camada_1" data-name="Camada 1" xmlns="http://www.w3.org/2000/svg" viewBox="0 0 1080 1080"><defs><style>.cls-1{fill:#350465;}.cls-2{fill:#644e84;}.cls-3{fill:#948da3;}.cls-4{font-size:110px;letter-spacing:0.08em;}.cls-15,.cls-25,.cls-4{fill:#fff;}.cls-15,.cls-4{stroke:#350465;stroke-miterlimit:10;stroke-width:4px;font-family:SourceSerifPro-SemiboldIt, Source Serif Pro;font-weight:600;font-style:italic;}.cls-5{letter-spacing:0.08em;}.cls-6{letter-spacing:0.09em;}.cls-7{letter-spacing:0.08em;}.cls-8{letter-spacing:0.08em;}.cls-9{letter-spacing:0.03em;}.cls-10{letter-spacing:0.09em;}.cls-11{letter-spacing:0.03em;}.cls-12{letter-spacing:0.08em;}.cls-13{letter-spacing:0.08em;}.cls-14{letter-spacing:0.08em;}.cls-15{font-size:67px;letter-spacing:0.08em;}.cls-16{letter-spacing:0.08em;}.cls-17{letter-spacing:0.09em;}.cls-18{letter-spacing:0.07em;}.cls-19{letter-spacing:0.08em;}.cls-20{letter-spacing:0.03em;}.cls-21{letter-spacing:0.07em;}.cls-22{letter-spacing:0.01em;}.cls-23{letter-spacing:0.03em;}.cls-24{letter-spacing:0.08em;}</style></defs><title>Logo2</title><polygon class="cls-1" points="550 706 208.22 706 208.22 214.27 550 29 550 706"/><polygon class="cls-2" points="556.46 706 870.78 706 870.78 214.27 556.46 29 556.46 706"/><polygon class="cls-3" points="552.61 774.31 552.61 675.08 169.55 675.08 25.22 774.31 552.61 774.31"/><polygon class="cls-3" points="552.61 774.31 552.61 675.08 935.68 675.08 1080 774.31 552.61 774.31"/><text class="cls-4" transform="translate(66.25 890.59)">C<tspan class="cls-5" x="74.58" y="0">O</tspan><tspan class="cls-6" x="156.09" y="0">N</tspan><tspan class="cls-7" x="243.98" y="0">S</tspan><tspan class="cls-8" x="306.9" y="0">T</tspan><tspan class="cls-9" x="380.93" y="0">R</tspan><tspan class="cls-10" x="456.5" y="0">U</tspan><tspan class="cls-11" x="542.85" y="0">D</tspan><tspan class="cls-12" x="622.05" y="0">A</tspan><tspan class="cls-13" x="705.75" y="0">H</tspan><tspan class="cls-14" x="798.48" y="0">E</tspan><tspan class="cls-13" x="871.74" y="0">R</tspan></text><text class="cls-15" transform="translate(196.91 966.59)">C<tspan class="cls-16" x="45.43" y="0">O</tspan><tspan class="cls-17" x="95.07" y="0">N</tspan><tspan class="cls-18" x="148.6" y="0">S</tspan><tspan class="cls-19" x="186.93" y="0">T</tspan><tspan class="cls-20" x="232.02" y="0">R</tspan><tspan class="cls-19" x="278.05" y="0">U</tspan><tspan x="330.64" y="0">Ç</tspan><tspan class="cls-21" x="376.07" y="0">Õ</tspan><tspan class="cls-17" x="425.51" y="0">ES </tspan><tspan class="cls-22" x="530.3" y="0">L</tspan><tspan class="cls-17" x="568.62" y="0">T</tspan><tspan class="cls-23" x="613.71" y="0">D</tspan><tspan class="cls-24" x="661.96" y="0">A</tspan></text><polygon class="cls-25" points="657.67 479.7 657.67 423 449.86 423 450.93 479.7 657.67 479.7"/><polygon class="cls-25" points="469.41 674.25 355.36 674.25 355.36 316.33 469.86 250 469.41 674.25"/><polygon class="cls-25" points="635.81 675.27 749.86 675.27 749.86 314.61 635.86 250 635.81 675.27"/></svg>